<svg id="Layer_1" data-name="Layer 1" xmlns="http://www.w3.org/2000/svg" viewBox="0 0 787.67 452.99"><defs><style>.cls-1{fill:#1fb100;}.cls-2{fill:#ee1f0d;}.cls-3{fill:#f9b900;}.cls-4{fill:#6b6a70;}.cls-5{fill:#82665e;}.cls-6{fill:#5c7165;}.cls-7{fill:#6c6c6c;}.cls-8{font-size:102px;font-family:MyriadPro-Semibold, Myriad Pro;font-weight:600;}.cls-8,.cls-9{fill:#fffbf9;}.cls-10,.cls-12{font-size:30px;font-family:MyriadPro-Regular, Myriad Pro;}.cls-10{letter-spacing:-0.08em;}.cls-11{letter-spacing:0em;}.cls-13{letter-spacing:0em;}.cls-14{letter-spacing:-0.01em;}.cls-15{letter-spacing:-0.01em;}.cls-16,.cls-18{font-size:80px;fill:#3d3d3d;font-family:News701BT-BoldA, News701 BT;font-weight:700;}.cls-16{letter-spacing:-0.09em;}.cls-17,.cls-18{letter-spacing:0.04em;}</style></defs><title>final logosvg</title><rect class="cls-1" x="60.23" y="260" width="86" height="154"/><rect class="cls-2" x="180.55" y="259.76" width="86" height="154"/><rect class="cls-3" x="300.63" y="260" width="88" height="154"/><path class="cls-4" d="M95.6,126.86c-1.5-.55-3.72.39-4.3-2.06,3.88.08,8.39-1.59,10.36,3.75l-4-.18C96.79,128.17,96.31,127.35,95.6,126.86Z" transform="translate(-34.45 -38.24)"/><path class="cls-5" d="M87.41,122.82l-1.77-.16a1.81,1.81,0,0,1,2.27-1.89c.7.07,1.42.44,1.13,1.16C88.85,122.37,88,122.53,87.41,122.82Z" transform="translate(-34.45 -38.24)"/><path class="cls-6" d="M95.74,120.68c.32.2,1.1.43,1.24.86.29.9-.6,1-1.21,1s-1.41,0-1.58-.73C94,120.92,94.83,120.93,95.74,120.68Z" transform="translate(-34.45 -38.24)"/><polygon class="cls-7" points="438.39 83.64 221.04 0 0 83.64 221.04 155.32 438.39 83.64"/><path class="cls-7" d="M386.77,227.64V166.05l-131,43.66L126.22,166.05v61.12C195.15,228.55,256.5,269,256.5,269,328,224,386.77,227.64,386.77,227.64Z" transform="translate(-34.45 -38.24)"/><path class="cls-7" d="M413.65,225.56V286h19.9V225.56a7.39,7.39,0,0,0-4.24-6.45,8.36,8.36,0,0,0,4.24-7.05,8.6,8.6,0,0,0-5.64-7.75l0-.1V140.42l-8.69,2.4V203.9l.25.3c-3.45,1.36-5.86,4.36-5.86,7.86a8.33,8.33,0,0,0,4.24,7.05A7.4,7.4,0,0,0,413.65,225.56Z" transform="translate(-34.45 -38.24)"/><text class="cls-8" transform="translate(70.21 369.26)">Y</text><text class="cls-8" transform="translate(192.29 369.49)">P</text><text class="cls-8" transform="translate(310.2 370.69)">C</text><ellipse class="cls-9" cx="219.2" cy="77.66" rx="15.49" ry="7.57"/><text class="cls-10" transform="translate(74.85 445.49)">Y<tspan class="cls-11" x="13.95" y="0">our</tspan></text><text class="cls-12" transform="translate(178.43 445.25)"><tspan class="cls-13">P</tspan><tspan class="cls-14" x="15.81" y="0">h</tspan><tspan class="cls-15" x="32.07" y="0">y</tspan><tspan x="46.02" y="0">sics</tspan></text><text class="cls-12" transform="translate(313.28 445.49)">Class</text><text class="cls-16" transform="translate(448.37 163.46)">Y<tspan class="cls-17" x="55.19" y="0">our</tspan></text><text class="cls-18" transform="translate(454.53 268.46)">Physics</text><text class="cls-18" transform="translate(454.53 377.12)">Class</text></svg>