<svg xmlns="http://www.w3.org/2000/svg" xmlns:xlink="http://www.w3.org/1999/xlink" width="200" height="200" viewBox="0 0 200 200">
  <defs>
    <radialGradient id="radial-gradient" cx="0.5" cy="0.5" r="0.602" gradientTransform="translate(0 0.084) scale(1 0.831)" gradientUnits="objectBoundingBox">
      <stop offset="0" stop-color="#1fb100"/>
      <stop offset="1" stop-color="#1c9102"/>
    </radialGradient>
  </defs>
  <g id="Group_3441" data-name="Group 3441" transform="translate(-864 -5803)">
    <circle id="Ellipse_332" data-name="Ellipse 332" cx="100" cy="100" r="100" transform="translate(864 5803)" fill="url(#radial-gradient)"/>
    <circle id="Ellipse_335" data-name="Ellipse 335" cx="71" cy="71" r="71" transform="translate(893 5832)" fill="#fff"/>
    <g id="Group_3407" data-name="Group 3407" transform="translate(42.512 349.692)">
      <g id="like_2_" data-name="like (2)" transform="translate(878.488 5538.541)">
        <g id="Group_3404" data-name="Group 3404" transform="translate(0 23.797)">
          <g id="Group_3403" data-name="Group 3403" transform="translate(0)">
            <path id="Path_505" data-name="Path 505" d="M42.455,241.468H32.936a2.38,2.38,0,0,0-2.38,2.38v38.075a2.38,2.38,0,0,0,2.38,2.38h9.519a2.38,2.38,0,0,0,2.38-2.38V243.848A2.38,2.38,0,0,0,42.455,241.468Z" transform="translate(-30.556 -241.468)"/>
          </g>
        </g>
        <g id="Group_3406" data-name="Group 3406" transform="translate(19.038 0)">
          <g id="Group_3405" data-name="Group 3405">
            <path id="Path_506" data-name="Path 506" d="M203.1,121.277c-.42-3.692-3.868-6.308-7.583-6.308H176.964c1.577-2.823,2.423-10.809,2.385-14.071a9.909,9.909,0,0,0-9.933-9.727h-1.964a2.378,2.378,0,0,0-2.38,2.38c0,5.5-2.143,15.436-6.184,19.477-2.72,2.72-5.045,3.706-8.094,5.229v35.707c4.668,1.556,10.6,3.838,19.629,3.838H185.99c5.129,0,9.124-4.751,7.136-9.77a7.141,7.141,0,0,0,4.759-9.519,7.143,7.143,0,0,0,3.44-11.648A7.124,7.124,0,0,0,203.1,121.277Z" transform="translate(-150.794 -91.172)"/>
          </g>
        </g>
      </g>
      <g id="love" transform="translate(895.899 5502.308)">
        <path id="Path_507" data-name="Path 507" d="M60.629,0H18.136a12.8,12.8,0,0,0-12.8,12.8v27.87a12.8,12.8,0,0,0,12.8,12.8h6.1a.525.525,0,0,1,.525.525V67.751a1.794,1.794,0,0,0,3.1,1.229L42.286,53.643a.525.525,0,0,1,.383-.165H60.629a12.8,12.8,0,0,0,12.8-12.8V12.8A12.8,12.8,0,0,0,60.629,0Z" transform="translate(-5.332)" fill="#ec5569"/>
        <path id="Path_508" data-name="Path 508" d="M30.146,59.374a.532.532,0,0,0-.509-.553h-5.9c-6.846,0-12.4-6.037-12.4-13.483V15.989a14.61,14.61,0,0,1,.457-3.636A12.8,12.8,0,0,0,5.332,23.479v27.87a12.8,12.8,0,0,0,12.8,12.8h6.1a.525.525,0,0,1,.525.525V78.426a1.794,1.794,0,0,0,3.1,1.229l2.285-2.429V59.374Z" transform="translate(-5.332 -10.675)" fill="#e63950"/>
        <path id="Path_509" data-name="Path 509" d="M163.352,106.815h0a8.324,8.324,0,0,0-11.772,0l-1.836,1.836a1.121,1.121,0,0,1-1.586,0l-1.807-1.807a8.324,8.324,0,0,0-11.772,0h0a8.324,8.324,0,0,0,0,11.772l13.58,13.58a1.121,1.121,0,0,0,1.586,0l13.607-13.61A8.324,8.324,0,0,0,163.352,106.815Z" transform="translate(-114.915 -90.198)" fill="#ec5569"/>
        <path id="Path_510" data-name="Path 510" d="M163.352,106.815h0a8.324,8.324,0,0,0-11.772,0l-1.836,1.836a1.121,1.121,0,0,1-1.586,0l-1.807-1.807a8.324,8.324,0,0,0-11.772,0h0a8.324,8.324,0,0,0,0,11.772l13.58,13.58a1.121,1.121,0,0,0,1.586,0l13.607-13.61A8.324,8.324,0,0,0,163.352,106.815Z" transform="translate(-114.915 -90.198)" fill="#fff5f5"/>
        <path id="Path_511" data-name="Path 511" d="M138.934,118.816a8.324,8.324,0,0,1,0-11.772h0a8.282,8.282,0,0,1,3.709-2.147,8.318,8.318,0,0,0-8.063,2.147h0a8.324,8.324,0,0,0,0,11.772l13.58,13.58a1.121,1.121,0,0,0,1.586,0l1.384-1.384Z" transform="translate(-114.916 -90.398)" fill="#dce6eb"/>
      </g>
    </g>
  </g>
</svg>
