<svg xmlns="http://www.w3.org/2000/svg" xmlns:xlink="http://www.w3.org/1999/xlink" width="200" height="200" viewBox="0 0 200 200">
  <defs>
    <radialGradient id="radial-gradient" cx="0.5" cy="0.5" r="0.674" gradientTransform="translate(0 0.129) scale(1 0.742)" gradientUnits="objectBoundingBox">
      <stop offset="0" stop-color="#bc1608"/>
      <stop offset="1" stop-color="#890f05"/>
    </radialGradient>
  </defs>
  <g id="Group_3440" data-name="Group 3440" transform="translate(-402 -5803)">
    <circle id="Ellipse_331" data-name="Ellipse 331" cx="100" cy="100" r="100" transform="translate(402 5803)" fill="url(#radial-gradient)"/>
    <circle id="Ellipse_334" data-name="Ellipse 334" cx="71" cy="71" r="71" transform="translate(431 5832)" fill="#fff"/>
    <g id="Group_3408" data-name="Group 3408" transform="translate(107.949 341.34)">
      <g id="follow" transform="translate(347.966 5527.66)">
        <path id="Path_484" data-name="Path 484" d="M110.719,16.962l-7.1.037-20.567.11c-.593-2.9-.73-7.506.177-10.32C84.338,3.2,88.086,1.5,91.37.7,96.488-.551,104.135-.49,106.217,3.954a.962.962,0,0,0,.785.593C111.3,4.963,111.584,12.444,110.719,16.962Z" transform="translate(-56.068 0)" fill="#56788b"/>
        <path id="Path_485" data-name="Path 485" d="M282.671,54.985l-7.1.037V49.184c-2.106-6.316,3.38-6.614,3.38-6.614C283.248,42.986,283.536,50.468,282.671,54.985Z" transform="translate(-228.02 -38.023)" fill="#415e6f"/>
        <path id="Path_486" data-name="Path 486" d="M48.378,339.4q-.593-.066-1.221-.113H34.794c-16.089,1.214-15.025,11.761-14.942,17.863a.591.591,0,0,0,.592.582H61.507a.591.591,0,0,0,.592-.582c.081-5.942,1.093-16.1-13.721-17.75Z" transform="translate(0 -303.055)" fill="#ff6b81"/>
        <path id="Path_487" data-name="Path 487" d="M172.484,338.325a6.19,6.19,0,0,1-12.363,0q1.5-.114,3.206-.115h5.951Q170.985,338.21,172.484,338.325Z" transform="translate(-125.327 -302.09)" fill="#d9f0f4"/>
        <path id="Path_488" data-name="Path 488" d="M301.032,358.1a.591.591,0,0,1-.592.582H298.3a.591.591,0,0,0,.592-.582c.077-5.641.992-15.356-11.585-17.75C302.125,342,301.113,352.157,301.032,358.1Z" transform="translate(-238.933 -304.001)" fill="#ed2061"/>
        <g id="Group_3392" data-name="Group 3392" transform="translate(26.789 15.484)">
          <path id="Path_489" data-name="Path 489" d="M299.451,149.864h2.919a2.44,2.44,0,0,0,0-4.88h-2.077Z" transform="translate(-276.565 -144.984)" fill="#fab684"/>
          <path id="Path_490" data-name="Path 490" d="M90.518,149.864H87.6a2.44,2.44,0,0,1,0-4.88h2.077Z" transform="translate(-85.159 -144.984)" fill="#fab684"/>
        </g>
        <path id="Path_491" data-name="Path 491" d="M196.093,306.5a6.193,6.193,0,0,0,0,3.386,2.975,2.975,0,1,1-5.95,0,6.193,6.193,0,0,0,0-3.386Z" transform="translate(-152.143 -273.765)" fill="#fab684"/>
        <path id="Path_492" data-name="Path 492" d="M144.906,110.877c0,2.362-2.009,5.184-5.973,8.389a6.063,6.063,0,0,1-.7.492,6.384,6.384,0,0,1-3.272.9,6.216,6.216,0,0,1-3.933-1.392c-3.963-3.2-5.972-6.027-5.972-8.389,0-.251.01-.5.03-.749.1-1.031.073-5.736.07-8.774v0a2.637,2.637,0,0,1,1.476-2.435,22.286,22.286,0,0,1,8.35-1.346,27.18,27.18,0,0,1,6.39.692,12.059,12.059,0,0,1,1.962.654,2.638,2.638,0,0,1,1.475,2.435v0c0,3.038-.031,7.744.07,8.774C144.895,110.375,144.906,110.626,144.906,110.877Z" transform="translate(-94.002 -87.149)" fill="#fdd9b4"/>
        <path id="Path_493" data-name="Path 493" d="M255.118,116.665c0,2.362-2.009,5.184-5.973,8.389a6.065,6.065,0,0,1-.7.492c3.016-2.707,4.541-5.114,4.541-7.172,0-.251-.011-.5-.031-.749-.1-1.031-.073-7.445-.07-10.483v-.751a2.638,2.638,0,0,0-1.3-2.341,12.057,12.057,0,0,1,1.962.654,2.638,2.638,0,0,1,1.475,2.435v0c0,3.038-.031,7.744.07,8.774C255.107,116.163,255.118,116.414,255.118,116.665Z" transform="translate(-204.215 -92.937)" fill="#f9c19b"/>
        <g id="Group_3393" data-name="Group 3393" transform="translate(37.942 20.591)">
          <path id="Path_494" data-name="Path 494" d="M195.253,235.117a.8.8,0,0,0-1.107.238,1.83,1.83,0,0,1-3.077,0,.8.8,0,0,0-1.346.869,3.431,3.431,0,0,0,5.769,0A.8.8,0,0,0,195.253,235.117Z" transform="translate(-189.594 -230.483)" fill="#fab684"/>
          <path id="Path_495" data-name="Path 495" d="M201.255,194.831a.8.8,0,0,0,1.107-.238.42.42,0,0,1,.707,0,.8.8,0,1,0,1.346-.869,2.022,2.022,0,0,0-3.4,0A.8.8,0,0,0,201.255,194.831Z" transform="translate(-199.682 -192.797)" fill="#fab684"/>
        </g>
        <path id="Path_496" data-name="Path 496" d="M321.875,275.757a10.191,10.191,0,0,1-10.182,10.177,10.36,10.36,0,0,1-1.068-.056,10.177,10.177,0,0,1,0-20.242,10.368,10.368,0,0,1,1.068-.056A10.191,10.191,0,0,1,321.875,275.757Z" transform="translate(-251.617 -237.217)" fill="#09eaa3"/>
        <path id="Path_497" data-name="Path 497" d="M398.1,275.757a10.191,10.191,0,0,1-10.182,10.177,10.359,10.359,0,0,1-1.068-.056,10.177,10.177,0,0,0,0-20.242,10.368,10.368,0,0,1,1.068-.056A10.191,10.191,0,0,1,398.1,275.757Z" transform="translate(-327.843 -237.217)" fill="#14bb87"/>
        <path id="Path_498" data-name="Path 498" d="M357.1,325.454h2.728v2.728a.8.8,0,0,0,1.6,0v-2.728h2.728a.8.8,0,1,0,0-1.6h-2.728v-2.728a.8.8,0,0,0-1.6,0v2.728H357.1a.8.8,0,0,0,0,1.6Z" transform="translate(-300.558 -286.113)" fill="#fff"/>
        <g id="Group_3394" data-name="Group 3394" transform="translate(27.58 50.298)">
          <path id="Path_499" data-name="Path 499" d="M94.025,470.965a1,1,0,0,0-.728.315c-.314.309-.732.983-.732,3.266a.8.8,0,0,0,1.6,0,5.647,5.647,0,0,1,.24-2.084.8.8,0,0,0-.382-1.5Z" transform="translate(-92.565 -470.965)" fill="#ed2061"/>
          <path id="Path_500" data-name="Path 500" d="M323.924,471.281a1.008,1.008,0,0,0-.728-.315.8.8,0,0,0-.382,1.5,5.645,5.645,0,0,1,.24,2.084.8.8,0,1,0,1.6,0C324.656,472.264,324.239,471.59,323.924,471.281Z" transform="translate(-297.863 -470.966)" fill="#ed2061"/>
        </g>
      </g>
      <g id="follow-2" data-name="follow" transform="translate(323.242 5541.32)">
        <path id="Path_484-2" data-name="Path 484" d="M110.719,16.962l-7.1.037-20.567.11c-.593-2.9-.73-7.506.177-10.32C84.338,3.2,88.086,1.5,91.37.7,96.488-.551,104.135-.49,106.217,3.954a.962.962,0,0,0,.785.593C111.3,4.963,111.584,12.444,110.719,16.962Z" transform="translate(-56.068 0)" fill="#56788b"/>
        <path id="Path_485-2" data-name="Path 485" d="M282.671,54.985l-7.1.037V49.184c-2.106-6.316,3.38-6.614,3.38-6.614C283.248,42.986,283.536,50.468,282.671,54.985Z" transform="translate(-228.02 -38.023)" fill="#415e6f"/>
        <path id="Path_486-2" data-name="Path 486" d="M48.378,339.4q-.593-.066-1.221-.113H34.794c-16.089,1.214-15.025,11.761-14.942,17.863a.591.591,0,0,0,.592.582H61.507a.591.591,0,0,0,.592-.582c.081-5.942,1.093-16.1-13.721-17.75Z" transform="translate(0 -303.055)" fill="#ff6b81"/>
        <path id="Path_487-2" data-name="Path 487" d="M172.484,338.325a6.19,6.19,0,0,1-12.363,0q1.5-.114,3.206-.115h5.951Q170.985,338.21,172.484,338.325Z" transform="translate(-125.327 -302.09)" fill="#d9f0f4"/>
        <path id="Path_488-2" data-name="Path 488" d="M301.032,358.1a.591.591,0,0,1-.592.582H298.3a.591.591,0,0,0,.592-.582c.077-5.641.992-15.356-11.585-17.75C302.125,342,301.113,352.157,301.032,358.1Z" transform="translate(-238.933 -304.001)" fill="#ed2061"/>
        <g id="Group_3392-2" data-name="Group 3392" transform="translate(26.789 15.484)">
          <path id="Path_489-2" data-name="Path 489" d="M299.451,149.864h2.919a2.44,2.44,0,0,0,0-4.88h-2.077Z" transform="translate(-276.565 -144.984)" fill="#fab684"/>
          <path id="Path_490-2" data-name="Path 490" d="M90.518,149.864H87.6a2.44,2.44,0,0,1,0-4.88h2.077Z" transform="translate(-85.159 -144.984)" fill="#fab684"/>
        </g>
        <path id="Path_491-2" data-name="Path 491" d="M196.093,306.5a6.193,6.193,0,0,0,0,3.386,2.975,2.975,0,1,1-5.95,0,6.193,6.193,0,0,0,0-3.386Z" transform="translate(-152.143 -273.765)" fill="#fab684"/>
        <path id="Path_492-2" data-name="Path 492" d="M144.906,110.877c0,2.362-2.009,5.184-5.973,8.389a6.063,6.063,0,0,1-.7.492,6.384,6.384,0,0,1-3.272.9,6.216,6.216,0,0,1-3.933-1.392c-3.963-3.2-5.972-6.027-5.972-8.389,0-.251.01-.5.03-.749.1-1.031.073-5.736.07-8.774v0a2.637,2.637,0,0,1,1.476-2.435,22.286,22.286,0,0,1,8.35-1.346,27.18,27.18,0,0,1,6.39.692,12.059,12.059,0,0,1,1.962.654,2.638,2.638,0,0,1,1.475,2.435v0c0,3.038-.031,7.744.07,8.774C144.895,110.375,144.906,110.626,144.906,110.877Z" transform="translate(-94.002 -87.149)" fill="#fdd9b4"/>
        <path id="Path_493-2" data-name="Path 493" d="M255.118,116.665c0,2.362-2.009,5.184-5.973,8.389a6.065,6.065,0,0,1-.7.492c3.016-2.707,4.541-5.114,4.541-7.172,0-.251-.011-.5-.031-.749-.1-1.031-.073-7.445-.07-10.483v-.751a2.638,2.638,0,0,0-1.3-2.341,12.057,12.057,0,0,1,1.962.654,2.638,2.638,0,0,1,1.475,2.435v0c0,3.038-.031,7.744.07,8.774C255.107,116.163,255.118,116.414,255.118,116.665Z" transform="translate(-204.215 -92.937)" fill="#f9c19b"/>
        <g id="Group_3393-2" data-name="Group 3393" transform="translate(37.942 20.591)">
          <path id="Path_494-2" data-name="Path 494" d="M195.253,235.117a.8.8,0,0,0-1.107.238,1.83,1.83,0,0,1-3.077,0,.8.8,0,0,0-1.346.869,3.431,3.431,0,0,0,5.769,0A.8.8,0,0,0,195.253,235.117Z" transform="translate(-189.594 -230.483)" fill="#fab684"/>
          <path id="Path_495-2" data-name="Path 495" d="M201.255,194.831a.8.8,0,0,0,1.107-.238.42.42,0,0,1,.707,0,.8.8,0,1,0,1.346-.869,2.022,2.022,0,0,0-3.4,0A.8.8,0,0,0,201.255,194.831Z" transform="translate(-199.682 -192.797)" fill="#fab684"/>
        </g>
        <path id="Path_496-2" data-name="Path 496" d="M321.875,275.757a10.191,10.191,0,0,1-10.182,10.177,10.36,10.36,0,0,1-1.068-.056,10.177,10.177,0,0,1,0-20.242,10.368,10.368,0,0,1,1.068-.056A10.191,10.191,0,0,1,321.875,275.757Z" transform="translate(-251.617 -237.217)" fill="#09eaa3"/>
        <path id="Path_497-2" data-name="Path 497" d="M398.1,275.757a10.191,10.191,0,0,1-10.182,10.177,10.359,10.359,0,0,1-1.068-.056,10.177,10.177,0,0,0,0-20.242,10.368,10.368,0,0,1,1.068-.056A10.191,10.191,0,0,1,398.1,275.757Z" transform="translate(-327.843 -237.217)" fill="#14bb87"/>
        <path id="Path_498-2" data-name="Path 498" d="M357.1,325.454h2.728v2.728a.8.8,0,0,0,1.6,0v-2.728h2.728a.8.8,0,1,0,0-1.6h-2.728v-2.728a.8.8,0,0,0-1.6,0v2.728H357.1a.8.8,0,0,0,0,1.6Z" transform="translate(-300.558 -286.113)" fill="#fff"/>
        <g id="Group_3394-2" data-name="Group 3394" transform="translate(27.58 50.298)">
          <path id="Path_499-2" data-name="Path 499" d="M94.025,470.965a1,1,0,0,0-.728.315c-.314.309-.732.983-.732,3.266a.8.8,0,0,0,1.6,0,5.647,5.647,0,0,1,.24-2.084.8.8,0,0,0-.382-1.5Z" transform="translate(-92.565 -470.965)" fill="#ed2061"/>
          <path id="Path_500-2" data-name="Path 500" d="M323.924,471.281a1.008,1.008,0,0,0-.728-.315.8.8,0,0,0-.382,1.5,5.645,5.645,0,0,1,.24,2.084.8.8,0,1,0,1.6,0C324.656,472.264,324.239,471.59,323.924,471.281Z" transform="translate(-297.863 -470.966)" fill="#ed2061"/>
        </g>
      </g>
      <g id="follow-3" data-name="follow" transform="translate(373.191 5541.32)">
        <path id="Path_484-3" data-name="Path 484" d="M110.719,16.962l-7.1.037-20.567.11c-.593-2.9-.73-7.506.177-10.32C84.338,3.2,88.086,1.5,91.37.7,96.488-.551,104.135-.49,106.217,3.954a.962.962,0,0,0,.785.593C111.3,4.963,111.584,12.444,110.719,16.962Z" transform="translate(-56.068 0)" fill="#56788b"/>
        <path id="Path_485-3" data-name="Path 485" d="M282.671,54.985l-7.1.037V49.184c-2.106-6.316,3.38-6.614,3.38-6.614C283.248,42.986,283.536,50.468,282.671,54.985Z" transform="translate(-228.02 -38.023)" fill="#415e6f"/>
        <path id="Path_486-3" data-name="Path 486" d="M48.378,339.4q-.593-.066-1.221-.113H34.794c-16.089,1.214-15.025,11.761-14.942,17.863a.591.591,0,0,0,.592.582H61.507a.591.591,0,0,0,.592-.582c.081-5.942,1.093-16.1-13.721-17.75Z" transform="translate(0 -303.055)" fill="#ff6b81"/>
        <path id="Path_487-3" data-name="Path 487" d="M172.484,338.325a6.19,6.19,0,0,1-12.363,0q1.5-.114,3.206-.115h5.951Q170.985,338.21,172.484,338.325Z" transform="translate(-125.327 -302.09)" fill="#d9f0f4"/>
        <path id="Path_488-3" data-name="Path 488" d="M301.032,358.1a.591.591,0,0,1-.592.582H298.3a.591.591,0,0,0,.592-.582c.077-5.641.992-15.356-11.585-17.75C302.125,342,301.113,352.157,301.032,358.1Z" transform="translate(-238.933 -304.001)" fill="#ed2061"/>
        <g id="Group_3392-3" data-name="Group 3392" transform="translate(26.789 15.484)">
          <path id="Path_489-3" data-name="Path 489" d="M299.451,149.864h2.919a2.44,2.44,0,0,0,0-4.88h-2.077Z" transform="translate(-276.565 -144.984)" fill="#fab684"/>
          <path id="Path_490-3" data-name="Path 490" d="M90.518,149.864H87.6a2.44,2.44,0,0,1,0-4.88h2.077Z" transform="translate(-85.159 -144.984)" fill="#fab684"/>
        </g>
        <path id="Path_491-3" data-name="Path 491" d="M196.093,306.5a6.193,6.193,0,0,0,0,3.386,2.975,2.975,0,1,1-5.95,0,6.193,6.193,0,0,0,0-3.386Z" transform="translate(-152.143 -273.765)" fill="#fab684"/>
        <path id="Path_492-3" data-name="Path 492" d="M144.906,110.877c0,2.362-2.009,5.184-5.973,8.389a6.063,6.063,0,0,1-.7.492,6.384,6.384,0,0,1-3.272.9,6.216,6.216,0,0,1-3.933-1.392c-3.963-3.2-5.972-6.027-5.972-8.389,0-.251.01-.5.03-.749.1-1.031.073-5.736.07-8.774v0a2.637,2.637,0,0,1,1.476-2.435,22.286,22.286,0,0,1,8.35-1.346,27.18,27.18,0,0,1,6.39.692,12.059,12.059,0,0,1,1.962.654,2.638,2.638,0,0,1,1.475,2.435v0c0,3.038-.031,7.744.07,8.774C144.895,110.375,144.906,110.626,144.906,110.877Z" transform="translate(-94.002 -87.149)" fill="#fdd9b4"/>
        <path id="Path_493-3" data-name="Path 493" d="M255.118,116.665c0,2.362-2.009,5.184-5.973,8.389a6.065,6.065,0,0,1-.7.492c3.016-2.707,4.541-5.114,4.541-7.172,0-.251-.011-.5-.031-.749-.1-1.031-.073-7.445-.07-10.483v-.751a2.638,2.638,0,0,0-1.3-2.341,12.057,12.057,0,0,1,1.962.654,2.638,2.638,0,0,1,1.475,2.435v0c0,3.038-.031,7.744.07,8.774C255.107,116.163,255.118,116.414,255.118,116.665Z" transform="translate(-204.215 -92.937)" fill="#f9c19b"/>
        <g id="Group_3393-3" data-name="Group 3393" transform="translate(37.942 20.591)">
          <path id="Path_494-3" data-name="Path 494" d="M195.253,235.117a.8.8,0,0,0-1.107.238,1.83,1.83,0,0,1-3.077,0,.8.8,0,0,0-1.346.869,3.431,3.431,0,0,0,5.769,0A.8.8,0,0,0,195.253,235.117Z" transform="translate(-189.594 -230.483)" fill="#fab684"/>
          <path id="Path_495-3" data-name="Path 495" d="M201.255,194.831a.8.8,0,0,0,1.107-.238.42.42,0,0,1,.707,0,.8.8,0,1,0,1.346-.869,2.022,2.022,0,0,0-3.4,0A.8.8,0,0,0,201.255,194.831Z" transform="translate(-199.682 -192.797)" fill="#fab684"/>
        </g>
        <path id="Path_496-3" data-name="Path 496" d="M321.875,275.757a10.191,10.191,0,0,1-10.182,10.177,10.36,10.36,0,0,1-1.068-.056,10.177,10.177,0,0,1,0-20.242,10.368,10.368,0,0,1,1.068-.056A10.191,10.191,0,0,1,321.875,275.757Z" transform="translate(-251.617 -237.217)" fill="#09eaa3"/>
        <path id="Path_497-3" data-name="Path 497" d="M398.1,275.757a10.191,10.191,0,0,1-10.182,10.177,10.359,10.359,0,0,1-1.068-.056,10.177,10.177,0,0,0,0-20.242,10.368,10.368,0,0,1,1.068-.056A10.191,10.191,0,0,1,398.1,275.757Z" transform="translate(-327.843 -237.217)" fill="#14bb87"/>
        <path id="Path_498-3" data-name="Path 498" d="M357.1,325.454h2.728v2.728a.8.8,0,0,0,1.6,0v-2.728h2.728a.8.8,0,1,0,0-1.6h-2.728v-2.728a.8.8,0,0,0-1.6,0v2.728H357.1a.8.8,0,0,0,0,1.6Z" transform="translate(-300.558 -286.113)" fill="#fff"/>
        <g id="Group_3394-3" data-name="Group 3394" transform="translate(27.58 50.298)">
          <path id="Path_499-3" data-name="Path 499" d="M94.025,470.965a1,1,0,0,0-.728.315c-.314.309-.732.983-.732,3.266a.8.8,0,0,0,1.6,0,5.647,5.647,0,0,1,.24-2.084.8.8,0,0,0-.382-1.5Z" transform="translate(-92.565 -470.965)" fill="#ed2061"/>
          <path id="Path_500-3" data-name="Path 500" d="M323.924,471.281a1.008,1.008,0,0,0-.728-.315.8.8,0,0,0-.382,1.5,5.645,5.645,0,0,1,.24,2.084.8.8,0,1,0,1.6,0C324.656,472.264,324.239,471.59,323.924,471.281Z" transform="translate(-297.863 -470.966)" fill="#ed2061"/>
        </g>
      </g>
    </g>
  </g>
</svg>
