<svg xmlns="http://www.w3.org/2000/svg" xmlns:xlink="http://www.w3.org/1999/xlink" width="200" height="200" viewBox="0 0 200 200">
  <defs>
    <radialGradient id="radial-gradient" cx="0.5" cy="0.5" r="0.64" gradientTransform="translate(0 0.05) scale(1 0.9)" gradientUnits="objectBoundingBox">
      <stop offset="0" stop-color="#f9b900"/>
      <stop offset="1" stop-color="#f77510"/>
    </radialGradient>
  </defs>
  <g id="Group_3440" data-name="Group 3440" transform="translate(-1318 -5803)">
    <circle id="Ellipse_333" data-name="Ellipse 333" cx="100" cy="100" r="100" transform="translate(1318 5803)" fill="url(#radial-gradient)"/>
    <circle id="Ellipse_336" data-name="Ellipse 336" cx="71" cy="71" r="71" transform="translate(1347 5832)" fill="#fff"/>
    <g id="video-view" transform="translate(1379 5869)">
      <path id="Path_512" data-name="Path 512" d="M121.245,0H65.331A1.279,1.279,0,0,0,64,1.22V50.035a1.279,1.279,0,0,0,1.331,1.22h55.915a1.279,1.279,0,0,0,1.331-1.22V1.22A1.279,1.279,0,0,0,121.245,0Zm0,0" transform="translate(-54.237)" fill="#cd0808"/>
      <path id="Path_513" data-name="Path 513" d="M70.1,50.035V1.22A1.279,1.279,0,0,1,71.433,0h-6.1A1.279,1.279,0,0,0,64,1.22V50.035a1.279,1.279,0,0,0,1.331,1.22h6.1A1.279,1.279,0,0,1,70.1,50.035Zm0,0" transform="translate(-54.237)" fill="#cd0808"/>
      <path id="Path_514" data-name="Path 514" d="M432,0V51.255h10.983a1.22,1.22,0,0,0,1.22-1.22V1.22A1.22,1.22,0,0,0,442.983,0Zm8.542,43.933h-4.881V39.051h4.881Zm0-15.865h-4.881V23.187h4.881ZM435.661,12.2V7.322h4.881V12.2Zm0,0" transform="translate(-366.101)" fill="#cd0808"/>
      <path id="Path_515" data-name="Path 515" d="M12.2,0H1.22A1.22,1.22,0,0,0,0,1.22V50.035a1.22,1.22,0,0,0,1.22,1.22H12.2ZM8.542,43.933H3.661V39.051H8.542Zm0-15.865H3.661V23.187H8.542ZM3.661,12.2V7.322H8.542V12.2Zm0,0" fill="#cd0808"/>
      <path id="Path_516" data-name="Path 516" d="M212.247,85.66,193.941,72.236A1.22,1.22,0,0,0,192,73.22v26.848a1.231,1.231,0,0,0,1.942.984l18.305-13.424a1.22,1.22,0,0,0,0-1.968Zm0,0" transform="translate(-162.711 -61.016)" fill="#fff"/>
      <path id="Path_517" data-name="Path 517" d="M212.247,85.66l-.762-.559-15.1,11.075a1.231,1.231,0,0,1-1.942-.984V72.6l-.5-.365A1.22,1.22,0,0,0,192,73.22v26.848a1.231,1.231,0,0,0,1.942.984l18.305-13.424a1.22,1.22,0,0,0,0-1.968Zm0,0" transform="translate(-162.711 -61.016)" fill="#cd0808"/>
      <path id="Path_518" data-name="Path 518" d="M254.14,269.927A43.914,43.914,0,0,0,247.535,263c-5.412-4.58-11.065-7-16.348-7s-10.936,2.42-16.348,7a43.914,43.914,0,0,0-6.605,6.926,1.22,1.22,0,0,0-.011,1.421,41.867,41.867,0,0,0,6.5,6.937c5.363,4.582,11.057,7,16.466,7,5.282,0,10.936-2.42,16.348-7a43.912,43.912,0,0,0,6.605-6.926,1.218,1.218,0,0,0,0-1.435Zm0,0" transform="translate(-176.271 -216.949)" fill="#c7c4c4"/>
      <path id="Path_519" data-name="Path 519" d="M253.268,340a46.215,46.215,0,0,1-5.733,5.813c-5.412,4.581-11.065,7-16.348,7-5.409,0-11.1-2.422-16.466-7a44.055,44.055,0,0,1-5.626-5.795c-.529.645-.827,1.051-.861,1.1a1.22,1.22,0,0,0-.011,1.421,41.864,41.864,0,0,0,6.5,6.937c5.363,4.582,11.057,7,16.466,7,5.282,0,10.936-2.42,16.348-7a43.91,43.91,0,0,0,6.605-6.926,1.218,1.218,0,0,0,0-1.435C254.106,341.065,253.8,340.653,253.268,340Zm0,0" transform="translate(-176.271 -288.135)" fill="#fefefe"/>
      <path id="Path_520" data-name="Path 520" d="M298.983,280a10.983,10.983,0,1,0,10.983,10.983A11,11,0,0,0,298.983,280Zm0,0" transform="translate(-244.067 -237.288)" fill="#040404"/>
      <path id="Path_521" data-name="Path 521" d="M302.644,304.015a10.977,10.977,0,0,1-7.79-18.718,10.981,10.981,0,1,0,11.919,17.91A10.931,10.931,0,0,1,302.644,304.015Zm0,0" transform="translate(-244.067 -241.777)" fill="#1d1a1a"/>
    </g>
  </g>
</svg>
